<svg width="480" height="250.00000000000003" xmlns="http://www.w3.org/2000/svg" preserveAspectRatio="xMidYMid meet">
 <metadata>Created by potrace 1.15, written by Peter Selinger 2001-2017</metadata>

 <g>
  <title>background</title>
  <rect fill="none" id="canvas_background" height="252" width="482" y="-1" x="-1"/>
 </g>
 <g>
  <title>Layer 1</title>
  <g id="svg_1" fill="#132639" transform="translate(0,639) scale(0.10000000149011612,-0.10000000149011612) ">
   <path id="svg_2" fill="#3333cc" d="m2395.715832,6242.426929c0,-29 -3,-31 -35,-31c-113,0 -259,-64 -351,-155c-114,-112 -164,-235 -164,-398c1,-160 54,-288 168,-399l53,-53l25,30c30,38 30,50 -2,71c-14,10 -45,45 -69,78c-135,190 -119,429 42,597c78,82 166,125 290,143c41,6 42,5 45,-24l3,-30l68,45c37,25 67,50 67,55c0,5 -26,27 -57,48c-87,58 -83,57 -83,23z"/>
   <path id="svg_3" fill="#3333cc" d="m2697.715832,6081.426929c-12,-16 -22,-32 -22,-36c0,-4 24,-33 54,-64c67,-70 102,-138 122,-237c53,-257 -135,-515 -399,-548c-57,-7 -57,-7 -57,19c0,14 -4,26 -10,26c-16,0 -125,-81 -125,-93c0,-10 112,-96 127,-97c4,0 8,12 10,28c3,26 6,27 68,34c162,16 317,117 405,263c94,158 102,373 18,540c-26,51 -90,131 -131,163l-39,31l-21,-29z"/>
   <path id="svg_4" fill="green" d="m2315.715832,5701.426929l0,-290l80,0l80,0l0,290l0,290l-80,0l-80,0l0,-290zm110,0l0,-250l-30,0l-30,0l0,250l0,250l30,0l30,0l0,-250z"/>
   <path id="svg_5" fill="#33cc33" d="m2535.715832,5631.426929l0,-220l75,0l75,0l0,220l0,220l-75,0l-75,0l0,-220z"/>
   <path id="svg_6" fill="#ace600" d="m2105.715832,5566.426929l0,-155l75,0l75,0l0,155l0,155l-75,0l-75,0l0,-155z"/>
   <path id="svg_7" d="m4013.715832,4850.426929c-22,-12 -23,-43 -3,-99c21,-60 21,-475 0,-585c-17,-90 -10,-118 36,-134c68,-24 179,-2 179,35c0,9 -12,49 -26,88l-27,71l1,298c0,282 -1,300 -19,318c-21,21 -110,26 -141,8z"/>
   <path id="svg_8" d="m210.715832,4825.426929c-96,-8 -98,-9 -90,-57c14,-84 17,-578 4,-650c-10,-53 -10,-70 0,-80c17,-17 259,-22 351,-8c88,14 155,47 203,100c76,84 101,173 95,332c-3,92 -7,112 -35,169c-37,75 -45,86 -94,123c-63,47 -141,68 -269,72c-63,1 -137,1 -165,-1zm250,-115c59,-16 119,-83 136,-150c18,-75 16,-212 -4,-280c-29,-96 -106,-149 -219,-149c-84,0 -78,-22 -78,291l0,280l23,9c31,12 95,12 142,-1z"/>
   <path id="svg_9" d="m4431.715832,4746.426929c-8,-9 -23,-41 -33,-71c-9,-31 -25,-60 -34,-65c-56,-30 -60,-72 -11,-114c26,-22 27,-26 34,-176c3,-85 11,-171 18,-191c15,-50 68,-95 123,-103c131,-20 214,81 92,112c-77,19 -80,26 -83,171c-3,153 3,169 72,192c49,16 69,40 58,68c-2,7 -29,24 -58,37c-48,21 -54,28 -64,67c-17,64 -36,88 -70,88c-15,0 -35,-7 -44,-15z"/>
   <path id="svg_10" d="m1115.715832,4600.426929c-99,-12 -163,-56 -206,-139c-22,-43 -31,-206 -15,-266c34,-127 164,-201 307,-175c76,14 143,49 150,78c14,54 -14,66 -102,45c-141,-34 -214,27 -214,178c0,75 16,125 47,150c34,27 73,25 151,-6c59,-23 65,-24 87,-10c52,34 39,97 -27,125c-53,23 -107,29 -178,20z"/>
   <path id="svg_11" d="m1627.715832,4596.426929c-122,-38 -183,-134 -183,-286c0,-87 6,-119 32,-169c39,-79 128,-130 228,-131c167,-3 274,103 288,283c17,223 -158,368 -365,303zm160,-122c39,-40 48,-74 48,-169c0,-136 -34,-190 -121,-188c-58,1 -81,18 -105,81c-19,48 -24,145 -11,205c4,21 19,51 33,68c23,26 32,30 78,30c44,0 56,-4 78,-27z"/>
   <path id="svg_12" d="m2903.715832,4597.426929c-88,-32 -128,-82 -128,-157c0,-85 39,-120 224,-198c64,-27 81,-48 67,-84c-17,-45 -91,-50 -175,-12c-75,34 -101,33 -115,-5c-25,-75 41,-120 182,-123c107,-3 150,7 193,45c44,39 64,77 64,123c0,89 -57,146 -190,190c-83,28 -110,48 -110,84c0,16 10,26 37,37c35,15 41,14 121,-12l84,-28l19,23c33,41 18,84 -36,107c-51,21 -192,27 -237,10z"/>
   <path id="svg_13" d="m2357.715832,4568.426929c-56,-19 -66,-20 -95,-7c-18,7 -55,15 -84,17c-63,6 -78,-12 -62,-72c11,-38 6,-295 -7,-402c-5,-46 -4,-53 17,-63c34,-19 129,-8 143,16c7,12 11,81 11,189c0,185 4,204 55,230c64,33 120,5 139,-69c6,-25 11,-110 11,-190c0,-161 3,-170 65,-182c37,-7 82,1 102,18c16,13 17,62 1,91c-6,12 -15,88 -19,169c-6,123 -10,155 -29,194c-40,81 -125,102 -248,61z"/>
   <path id="svg_14" d="m3314.715832,4575.426929c-10,-13 -10,-24 0,-62c7,-26 17,-117 21,-203c8,-175 21,-217 78,-256c52,-35 110,-39 192,-14c69,21 73,21 115,5c52,-19 104,-13 130,16c16,18 17,26 6,77c-7,32 -15,140 -18,241c-5,140 -9,187 -20,198c-26,26 -114,13 -135,-20c-4,-6 -4,-76 -1,-156c6,-164 -3,-218 -44,-249c-14,-12 -40,-21 -59,-21c-83,0 -92,23 -101,246c-7,209 -10,214 -97,214c-37,0 -58,-5 -67,-16z"/>
  </g>
 </g>
</svg>
