<svg xmlns="http://www.w3.org/2000/svg" version="1.0" width="742" height="136" preserveAspectRatio="xMidYMid meet" style=""><rect id="backgroundrect" width="100%" height="100%" x="0" y="0" fill="none" stroke="none"/>
<metadata>
Created by potrace 1.15, written by Peter Selinger 2001-2017
</metadata>

<g class="currentLayer" style=""><title>Layer 1</title><g transform="translate(0,635) scale(0.10000000149011612,-0.10000000149011612) " fill="#B5B7BA" stroke="none" id="svg_1" class="">
<path d="M20.765027046203613,6258.338798999888 l0,-68 l63,4 l62,4 l-3,-458 c-4,-523 -2,-511 -80,-528 l-42,-10 l0,-53 l0,-53 l308,0 c224,0 325,4 372,14 c232,50 382,176 463,389 c29,76 31,92 31,212 c1,102 -3,142 -18,185 c-46,136 -129,243 -246,319 c-143,93 -246,111 -632,111 l-278,0 l0,-68 zm674,-90 c146,-68 216,-196 231,-424 c16,-234 -71,-425 -225,-496 c-47,-22 -73,-26 -184,-30 l-129,-5 l6,78 c4,43 7,253 7,467 l0,390 l31,30 c30,30 31,31 114,26 c65,-5 99,-13 149,-36 z" id="svg_2"/>
<path d="M6402.765027046204,6280.338798999888 c-18,-8 -61,-17 -95,-20 c-134,-11 -127,-7 -127,-73 l0,-57 l58,4 l57,4 l-3,-423 c-1,-233 -5,-438 -7,-456 c-6,-36 -37,-63 -72,-63 c-21,0 -23,-5 -23,-50 l0,-50 l220,0 l220,0 l0,55 l0,55 l-52,0 l-53,0 l3,545 l2,545 l-47,-1 c-27,0 -63,-7 -81,-15 z" id="svg_3"/>
<path d="M6927.765027046204,6051.338798999888 c-35,-74 -113,-140 -182,-155 c-29,-6 -30,-7 -33,-73 l-3,-67 l61,0 l60,0 l0,-239 c0,-193 3,-248 16,-289 c37,-114 128,-169 261,-158 c106,8 175,38 239,103 c30,30 54,59 54,63 c0,5 -18,23 -41,40 l-40,33 l-15,-22 c-23,-32 -97,-71 -136,-71 c-52,0 -84,30 -97,91 c-12,53 -15,376 -5,428 l7,31 l103,0 l104,0 l0,60 l0,60 l-105,0 l-105,0 l0,100 l0,100 l-63,0 c-62,0 -64,-1 -80,-35 z" id="svg_4"/>
<path d="M2586.7650270462036,5945.338798999888 c-84,-14 -187,-71 -250,-140 c-64,-69 -90,-114 -111,-196 c-29,-111 -13,-244 41,-343 c14,-26 50,-71 80,-101 l54,-53 l0,92 l0,93 l33,-3 l32,-3 l3,-111 l3,-110 l33,-12 c18,-7 38,-12 44,-12 c9,0 12,69 12,271 l0,270 l33,-3 l32,-3 l3,-277 l2,-278 l45,0 l45,0 l0,190 l0,190 l30,0 l30,0 l0,-180 c0,-198 -2,-192 64,-165 l36,15 l0,270 l0,270 l30,0 l30,0 l2,-252 l3,-253 l52,53 c31,31 67,83 90,129 c38,76 38,78 38,198 c0,119 -1,122 -37,196 c-67,135 -200,236 -343,259 c-68,11 -90,11 -159,-1 z" id="svg_5"/>
<path d="M1653.7650270462036,5901.338798999888 c-176,-49 -296,-183 -323,-359 c-35,-224 94,-419 308,-465 c175,-37 363,26 465,155 l20,26 l-36,36 l-36,35 l-42,-37 c-62,-57 -121,-80 -204,-81 c-85,0 -134,22 -176,80 c-67,94 -79,291 -23,402 c45,90 122,129 205,104 c51,-15 72,-37 62,-65 c-42,-118 93,-208 180,-120 c81,81 9,231 -135,278 c-73,24 -200,30 -265,11 z" id="svg_6"/>
<path d="M3775.7650270462036,5902.338798999888 c-66,-18 -102,-32 -135,-56 c-36,-26 -40,-25 -40,4 c0,45 -10,56 -52,56 c-21,0 -53,-7 -70,-16 c-17,-9 -75,-21 -129,-27 l-99,-10 l0,-60 l0,-60 l59,6 l58,5 l-5,-242 c-2,-151 -8,-250 -16,-266 c-7,-15 -26,-30 -46,-36 c-33,-11 -35,-15 -38,-58 l-3,-46 l225,0 l226,0 l0,55 l0,55 l-55,0 l-55,0 l0,254 l0,254 l52,26 c57,28 129,34 172,14 c14,-6 36,-32 48,-57 c22,-43 23,-58 23,-248 c0,-199 0,-202 -24,-227 c-14,-14 -35,-26 -48,-26 c-21,0 -23,-4 -23,-50 l0,-50 l220,0 l220,0 l0,55 l0,55 l-55,0 l-55,0 l0,228 c0,252 -10,317 -58,386 c-52,76 -184,112 -297,82 z" id="svg_7"/>
<path d="M4555.765027046204,5903.338798999888 c-66,-18 -103,-38 -141,-79 c-82,-86 -93,-209 -27,-296 c33,-45 103,-82 265,-143 c156,-58 191,-83 186,-131 c-5,-51 -45,-73 -131,-72 c-115,2 -208,56 -238,139 c-13,34 -15,35 -66,35 l-53,0 l0,-48 c0,-27 3,-90 6,-140 l7,-92 l58,0 c57,0 59,1 59,26 c0,21 3,25 18,19 c115,-49 117,-49 227,-50 c99,0 116,3 165,26 c100,48 150,119 150,214 c0,133 -91,210 -348,296 c-133,44 -152,57 -152,111 c0,48 24,74 79,83 c99,17 199,-34 241,-122 l25,-52 l53,-1 l52,0 l0,140 l0,140 l-66,0 c-62,0 -66,-1 -61,-21 c6,-23 7,-23 -73,6 c-60,22 -173,28 -235,12 z" id="svg_8"/>
<path d="M5338.765027046204,5885.338798999888 c-26,-10 -84,-22 -128,-25 l-80,-7 l0,-60 l0,-59 l54,6 l54,7 l4,-238 c5,-269 13,-306 77,-373 c88,-92 272,-92 400,0 c22,17 45,30 51,30 c5,0 10,-16 10,-35 l0,-35 l160,0 l160,0 l0,55 l0,55 l-50,0 l-50,0 l0,351 l0,351 l-52,-5 c-29,-2 -72,-11 -95,-20 c-23,-9 -78,-19 -122,-23 l-81,-7 l0,-60 l0,-60 l61,7 l62,7 l-7,-62 c-3,-34 -6,-139 -6,-233 l0,-171 l-39,-27 c-51,-37 -113,-50 -160,-35 c-27,9 -41,23 -58,57 c-22,43 -23,53 -23,337 l0,293 l-47,-1 c-27,-1 -69,-9 -95,-20 z" id="svg_9"/>
</g></g></svg>