<?xml version="1.0" standalone="no"?>
<!DOCTYPE svg PUBLIC "-//W3C//DTD SVG 20010904//EN"
 "http://www.w3.org/TR/2001/REC-SVG-20010904/DTD/svg10.dtd">
<svg version="1.0" xmlns="http://www.w3.org/2000/svg"
 width="856.000000pt" height="635.000000pt" viewBox="0 0 856.000000 635.000000"
 preserveAspectRatio="xMidYMid meet">
<metadata>
Created by potrace 1.15, written by Peter Selinger 2001-2017
</metadata>
<g transform="translate(0.000000,635.000000) scale(0.100000,-0.100000)"
fill="#B5B7BA" stroke="none">
<path d="M600 3772 l0 -68 63 4 62 4 -3 -458 c-4 -523 -2 -511 -80 -528 l-42
-10 0 -53 0 -53 308 0 c224 0 325 4 372 14 232 50 382 176 463 389 29 76 31
92 31 212 1 102 -3 142 -18 185 -46 136 -129 243 -246 319 -143 93 -246 111
-632 111 l-278 0 0 -68z m674 -90 c146 -68 216 -196 231 -424 16 -234 -71
-425 -225 -496 -47 -22 -73 -26 -184 -30 l-129 -5 6 78 c4 43 7 253 7 467 l0
390 31 30 c30 30 31 31 114 26 65 -5 99 -13 149 -36z"/>
<path d="M6982 3794 c-18 -8 -61 -17 -95 -20 -134 -11 -127 -7 -127 -73 l0
-57 58 4 57 4 -3 -423 c-1 -233 -5 -438 -7 -456 -6 -36 -37 -63 -72 -63 -21 0
-23 -5 -23 -50 l0 -50 220 0 220 0 0 55 0 55 -52 0 -53 0 3 545 2 545 -47 -1
c-27 0 -63 -7 -81 -15z"/>
<path d="M7507 3565 c-35 -74 -113 -140 -182 -155 -29 -6 -30 -7 -33 -73 l-3
-67 61 0 60 0 0 -239 c0 -193 3 -248 16 -289 37 -114 128 -169 261 -158 106 8
175 38 239 103 30 30 54 59 54 63 0 5 -18 23 -41 40 l-40 33 -15 -22 c-23 -32
-97 -71 -136 -71 -52 0 -84 30 -97 91 -12 53 -15 376 -5 428 l7 31 103 0 104
0 0 60 0 60 -105 0 -105 0 0 100 0 100 -63 0 c-62 0 -64 -1 -80 -35z"/>
<path d="M3166 3459 c-84 -14 -187 -71 -250 -140 -64 -69 -90 -114 -111 -196
-29 -111 -13 -244 41 -343 14 -26 50 -71 80 -101 l54 -53 0 92 0 93 33 -3 32
-3 3 -111 3 -110 33 -12 c18 -7 38 -12 44 -12 9 0 12 69 12 271 l0 270 33 -3
32 -3 3 -277 2 -278 45 0 45 0 0 190 0 190 30 0 30 0 0 -180 c0 -198 -2 -192
64 -165 l36 15 0 270 0 270 30 0 30 0 2 -252 3 -253 52 53 c31 31 67 83 90
129 38 76 38 78 38 198 0 119 -1 122 -37 196 -67 135 -200 236 -343 259 -68
11 -90 11 -159 -1z"/>
<path d="M2233 3415 c-176 -49 -296 -183 -323 -359 -35 -224 94 -419 308 -465
175 -37 363 26 465 155 l20 26 -36 36 -36 35 -42 -37 c-62 -57 -121 -80 -204
-81 -85 0 -134 22 -176 80 -67 94 -79 291 -23 402 45 90 122 129 205 104 51
-15 72 -37 62 -65 -42 -118 93 -208 180 -120 81 81 9 231 -135 278 -73 24
-200 30 -265 11z"/>
<path d="M4355 3416 c-66 -18 -102 -32 -135 -56 -36 -26 -40 -25 -40 4 0 45
-10 56 -52 56 -21 0 -53 -7 -70 -16 -17 -9 -75 -21 -129 -27 l-99 -10 0 -60 0
-60 59 6 58 5 -5 -242 c-2 -151 -8 -250 -16 -266 -7 -15 -26 -30 -46 -36 -33
-11 -35 -15 -38 -58 l-3 -46 225 0 226 0 0 55 0 55 -55 0 -55 0 0 254 0 254
52 26 c57 28 129 34 172 14 14 -6 36 -32 48 -57 22 -43 23 -58 23 -248 0 -199
0 -202 -24 -227 -14 -14 -35 -26 -48 -26 -21 0 -23 -4 -23 -50 l0 -50 220 0
220 0 0 55 0 55 -55 0 -55 0 0 228 c0 252 -10 317 -58 386 -52 76 -184 112
-297 82z"/>
<path d="M5135 3417 c-66 -18 -103 -38 -141 -79 -82 -86 -93 -209 -27 -296 33
-45 103 -82 265 -143 156 -58 191 -83 186 -131 -5 -51 -45 -73 -131 -72 -115
2 -208 56 -238 139 -13 34 -15 35 -66 35 l-53 0 0 -48 c0 -27 3 -90 6 -140 l7
-92 58 0 c57 0 59 1 59 26 0 21 3 25 18 19 115 -49 117 -49 227 -50 99 0 116
3 165 26 100 48 150 119 150 214 0 133 -91 210 -348 296 -133 44 -152 57 -152
111 0 48 24 74 79 83 99 17 199 -34 241 -122 l25 -52 53 -1 52 0 0 140 0 140
-66 0 c-62 0 -66 -1 -61 -21 6 -23 7 -23 -73 6 -60 22 -173 28 -235 12z"/>
<path d="M5918 3399 c-26 -10 -84 -22 -128 -25 l-80 -7 0 -60 0 -59 54 6 54 7
4 -238 c5 -269 13 -306 77 -373 88 -92 272 -92 400 0 22 17 45 30 51 30 5 0
10 -16 10 -35 l0 -35 160 0 160 0 0 55 0 55 -50 0 -50 0 0 351 0 351 -52 -5
c-29 -2 -72 -11 -95 -20 -23 -9 -78 -19 -122 -23 l-81 -7 0 -60 0 -60 61 7 62
7 -7 -62 c-3 -34 -6 -139 -6 -233 l0 -171 -39 -27 c-51 -37 -113 -50 -160 -35
-27 9 -41 23 -58 57 -22 43 -23 53 -23 337 l0 293 -47 -1 c-27 -1 -69 -9 -95
-20z"/>
</g>
</svg>
